
<svg width="20" height="20" viewBox="0 0 20 20" fill="none" xmlns="http://www.w3.org/2000/svg">
<path d="M10 0C4.48583 0 0 4.485 0 9.99833C0 15.5133 4.48667 20 10 20C15.5133 20 19.9983 15.5133 19.9983 9.99833C19.9983 4.485 15.5142 0 10 0ZM10 2.025C12.1147 2.025 14.1427 2.86505 15.638 4.36034C17.1333 5.85563 17.9733 7.88367 17.9733 9.99833C17.9733 14.4033 14.4042 17.975 10 17.975C5.59583 17.975 2.025 14.4033 2.025 9.99833C2.025 5.59417 5.59583 2.025 10 2.025ZM9.8875 3.11667L7.35 4.58167V4.58333L9.58333 8.45C9.9375 8.35583 10.3233 8.38333 10.675 8.54833L11.85 6.51333L9.8875 3.11667ZM13.3625 4.99667L11.1292 8.86583C11.4 9.13583 11.5625 9.49 11.5933 9.86167H13.94L15.9033 6.465L13.3625 4.99667ZM3.9825 6.65333V9.61167H3.98417V9.58667H8.45083C8.54696 9.22122 8.77036 8.90207 9.08083 8.68667L7.90667 6.65333H3.9825ZM6.055 10.1383L4.09167 13.5333L6.6325 15.0017L8.8675 11.1308C8.60133 10.8646 8.43705 10.5133 8.40333 10.1383H6.055ZM11.5467 10.4133C11.4502 10.7782 11.2268 11.0967 10.9167 11.3117L12.0917 13.3467H16.0142V10.4133H11.5467ZM9.32167 11.45L8.14667 13.485L10.1075 16.8817L12.6483 15.415L10.415 11.5483C10.0608 11.6433 9.67417 11.615 9.32167 11.45Z" fill="#F7B614"/>
</svg>
