<svg width="20" height="20" viewBox="0 0 20 20" fill="none" xmlns="http://www.w3.org/2000/svg">
<mask id="mask0_118_29" style="mask-type:luminance" maskUnits="userSpaceOnUse" x="0" y="0" width="20" height="20">
<path d="M15.0744 6.4684C15.5845 7.19907 15.9297 8.0319 16.086 8.9092H18V11.0908H16.086C15.9297 11.9681 15.5845 12.8009 15.0744 13.5316L16.4284 14.8856L14.8856 16.4284L13.5316 15.0744C12.8009 15.5845 11.9681 15.9297 11.0908 16.086V18H8.9092V16.086C8.0319 15.9297 7.19907 15.5845 6.4684 15.0744L5.1144 16.4284L3.5716 14.8856L4.9256 13.5316C4.41549 12.8009 4.07033 11.9681 3.914 11.0908H2V8.9092H3.914C4.07033 8.0319 4.41549 7.19907 4.9256 6.4684L3.5716 5.1144L5.1144 3.5716L6.4684 4.9256C7.19907 4.41549 8.0319 4.07033 8.9092 3.914V2H11.0908V3.914C11.9681 4.07033 12.8009 4.41549 13.5316 4.9256L14.8856 3.5716L16.4284 5.1144L15.0744 6.4684Z" fill="white" stroke="white" strokeWidth="4" strokeLinejoin="round"/>
<path d="M10 12C10.5304 12 11.0391 11.7893 11.4142 11.4142C11.7893 11.0391 12 10.5304 12 10C12 9.46957 11.7893 8.96086 11.4142 8.58579C11.0391 8.21071 10.5304 8 10 8C9.46957 8 8.96086 8.21071 8.58579 8.58579C8.21071 8.96086 8 9.46957 8 10C8 10.5304 8.21071 11.0391 8.58579 11.4142C8.96086 11.7893 9.46957 12 10 12Z" fill="black" stroke="black" strokeWidth="4" strokeLinejoin="round"/>
</mask>
<g mask="url(#mask0_118_29)">
<path d="M0.400391 0.400391H19.6004V19.6004H0.400391V0.400391Z" fill="white"/>
</g>
</svg>
