<svg width="31" height="26" viewBox="0 0 31 26" fill="none" xmlns="http://www.w3.org/2000/svg">
<path id="Vector" d="M11.5216 21.7981H19.1063C18.9548 22.6942 18.4908 23.5078 17.7966 24.0944C17.1024 24.6811 16.2229 25.0029 15.314 25.0029C14.4051 25.0029 13.5256 24.6811 12.8314 24.0944C12.1372 23.5078 11.6732 22.6942 11.5216 21.7981ZM15.314 0.00292969C17.8642 0.00292969 20.3099 1.01599 22.1132 2.81924C23.9164 4.6225 24.9295 7.06824 24.9295 9.61843V14.7467L26.7475 18.798C26.8301 18.9833 26.8652 19.1863 26.8494 19.3886C26.8337 19.5909 26.7677 19.786 26.6574 19.9563C26.5471 20.1266 26.396 20.2667 26.2178 20.3637C26.0397 20.4608 25.8401 20.5118 25.6372 20.5122H4.99592C4.79275 20.5121 4.59282 20.4613 4.41433 20.3642C4.23584 20.2672 4.08446 20.127 3.97398 19.9565C3.8635 19.786 3.79742 19.5906 3.78177 19.388C3.76612 19.1855 3.80139 18.9822 3.88437 18.7967L5.69849 14.7454V9.60176L5.7049 9.28125C5.7926 6.79128 6.84337 4.43257 8.63583 2.70205C10.4283 0.971534 12.8225 0.00304668 15.314 0.00292969ZM29.4167 8.012C29.6603 8.01208 29.8949 8.10462 30.0729 8.27094C30.2509 8.43726 30.3591 8.66496 30.3757 8.90801C30.3924 9.15107 30.3161 9.39137 30.1623 9.58035C30.0086 9.76934 29.7888 9.89292 29.5475 9.92613L29.4167 9.9351H26.8526C26.609 9.93503 26.3745 9.84248 26.1964 9.67616C26.0184 9.50984 25.9102 9.28215 25.8936 9.03909C25.877 8.79603 25.9532 8.55574 26.107 8.36675C26.2607 8.17776 26.4805 8.05418 26.7218 8.02098L26.8526 8.012H29.4167ZM3.77539 8.012C4.01901 8.01208 4.25353 8.10462 4.43154 8.27094C4.60956 8.43726 4.7178 8.66496 4.73441 8.90801C4.75102 9.15107 4.67474 9.39137 4.521 9.58035C4.36726 9.76934 4.14751 9.89292 3.90616 9.92613L3.77539 9.9351H1.21126C0.967634 9.93503 0.733122 9.84248 0.555106 9.67616C0.37709 9.50984 0.268843 9.28215 0.252238 9.03909C0.235632 8.79603 0.311907 8.55574 0.465649 8.36675C0.619391 8.17776 0.839137 8.05418 1.08049 8.02098L1.21126 8.012H3.77539ZM28.9039 0.70422C29.0422 0.888506 29.1098 1.11633 29.0942 1.34623C29.0787 1.57612 28.9811 1.79279 28.8193 1.9568L28.7116 2.05039L26.1475 3.97349C25.9534 4.11978 25.711 4.18714 25.4693 4.162C25.2275 4.13687 25.0043 4.02111 24.8444 3.83802C24.6845 3.65493 24.6 3.41809 24.6077 3.17515C24.6154 2.93221 24.7148 2.7012 24.8859 2.5286L24.9936 2.43501L27.5577 0.51191C27.7617 0.358899 28.0182 0.293199 28.2706 0.329264C28.5231 0.365329 28.7509 0.500205 28.9039 0.70422ZM3.07025 0.51191L5.63439 2.43501C5.7354 2.51077 5.82051 2.60569 5.88485 2.71435C5.94918 2.823 5.99149 2.94326 6.00934 3.06827C6.0272 3.19327 6.02026 3.32057 5.98892 3.44289C5.95759 3.56521 5.90246 3.68016 5.8267 3.78118C5.75093 3.8822 5.65601 3.9673 5.54736 4.03164C5.43871 4.09597 5.31844 4.13828 5.19344 4.15614C5.06844 4.17399 4.94114 4.16706 4.81882 4.13572C4.6965 4.10438 4.58155 4.04925 4.48053 3.97349L1.91639 2.05039C1.81538 1.97463 1.73027 1.87971 1.66593 1.77105C1.6016 1.6624 1.5593 1.54214 1.54144 1.41713C1.52358 1.29213 1.53052 1.16483 1.56186 1.04251C1.5932 0.92019 1.64832 0.805238 1.72408 0.70422C1.79985 0.603202 1.89477 0.518096 2.00342 0.453761C2.11207 0.389426 2.23234 0.347122 2.35734 0.329264C2.48234 0.311407 2.60964 0.318345 2.73196 0.349683C2.85428 0.381022 2.96924 0.436147 3.07025 0.51191Z" fill="#1569BD"/>
</svg>
