<svg width="17" height="20" viewBox="0 0 17 20" fill="none" xmlns="http://www.w3.org/2000/svg">
<path fill-rule="evenodd" clip-rule="evenodd" d="M9.58165 1C9.58165 0.734784 9.47629 0.48043 9.28875 0.292893C9.10122 0.105357 8.84686 0 8.58165 0C8.31643 0 8.06208 0.105357 7.87454 0.292893C7.687 0.48043 7.58165 0.734784 7.58165 1V1.75H7.02465C5.95268 1.74993 4.92097 2.15839 4.13957 2.89224C3.35817 3.62608 2.8858 4.63014 2.81865 5.7L2.59765 9.234C2.51337 10.5814 2.06095 11.8799 1.28965 12.988C1.13028 13.2171 1.0329 13.4835 1.00699 13.7613C0.981074 14.0392 1.0275 14.319 1.14176 14.5736C1.25601 14.8281 1.43421 15.0488 1.65901 15.2142C1.88382 15.3795 2.14758 15.4838 2.42465 15.517L5.83165 15.925V17C5.83165 17.7293 6.12138 18.4288 6.6371 18.9445C7.15283 19.4603 7.8523 19.75 8.58165 19.75C9.31099 19.75 10.0105 19.4603 10.5262 18.9445C11.0419 18.4288 11.3316 17.7293 11.3316 17V15.925L14.7386 15.516C15.0156 15.4827 15.2791 15.3784 15.5038 15.2131C15.7285 15.0478 15.9066 14.8273 16.0208 14.5729C16.135 14.3184 16.1815 14.0388 16.1557 13.7611C16.1299 13.4834 16.0328 13.2171 15.8736 12.988C15.1023 11.88 14.6499 10.5815 14.5656 9.234L14.3446 5.701C14.2777 4.63096 13.8055 3.62665 13.024 2.8926C12.2426 2.15855 11.2108 1.74995 10.1386 1.75H9.58165V1ZM7.02465 3.25C6.33422 3.24992 5.66972 3.51297 5.16642 3.98561C4.66313 4.45825 4.35889 5.10493 4.31565 5.794L4.09565 9.328C3.99399 10.949 3.44956 12.511 2.52165 13.844C2.51011 13.8606 2.50306 13.8798 2.50118 13.8999C2.4993 13.92 2.50265 13.9403 2.5109 13.9587C2.51915 13.9771 2.53203 13.9931 2.54828 14.005C2.56454 14.017 2.58361 14.0246 2.60365 14.027L6.34065 14.476C7.82965 14.654 9.33365 14.654 10.8226 14.476L14.5596 14.027C14.5797 14.0246 14.5988 14.017 14.615 14.005C14.6313 13.9931 14.6441 13.9771 14.6524 13.9587C14.6606 13.9403 14.664 13.92 14.6621 13.8999C14.6602 13.8798 14.6532 13.8606 14.6416 13.844C13.7141 12.5109 13.17 10.9489 13.0686 9.328L12.8476 5.794C12.8044 5.10493 12.5002 4.45825 11.9969 3.98561C11.4936 3.51297 10.8291 3.24992 10.1386 3.25H7.02465ZM8.58165 18.25C7.89165 18.25 7.33165 17.69 7.33165 17V16.25H9.83165V17C9.83165 17.69 9.27165 18.25 8.58165 18.25Z" fill="#777777"/>
<circle cx="3.5" cy="4.5" r="3.5" fill="#1569BD"/>
</svg>
