<svg width="22" height="22" viewBox="0 0 22 22" fill="none" xmlns="http://www.w3.org/2000/svg">
<path id="Vector" fill-rule="evenodd" clip-rule="evenodd" d="M0 11C0 8.08262 1.15893 5.28473 3.22183 3.22183C5.28473 1.15893 8.08262 0 11 0C13.9174 0 16.7153 1.15893 18.7782 3.22183C20.8411 5.28473 22 8.08262 22 11C22 13.9174 20.8411 16.7153 18.7782 18.7782C16.7153 20.8411 13.9174 22 11 22C8.08262 22 5.28473 20.8411 3.22183 18.7782C1.15893 16.7153 0 13.9174 0 11ZM11 1.57783C8.50109 1.57783 6.10452 2.57052 4.33752 4.33752C2.57052 6.10452 1.57783 8.50109 1.57783 11C1.57783 13.4989 2.57052 15.8955 4.33752 17.6625C6.10452 19.4295 8.50109 20.4222 11 20.4222C13.4989 20.4222 15.8955 19.4295 17.6625 17.6625C19.4295 15.8955 20.4222 13.4989 20.4222 11C20.4222 8.50109 19.4295 6.10452 17.6625 4.33752C15.8955 2.57052 13.4989 1.57783 11 1.57783ZM14.9097 7.09195C15.0654 7.24768 15.1529 7.45887 15.1529 7.67907C15.1529 7.89928 15.0654 8.11046 14.9097 8.26619L12.1742 11L14.9097 13.7338C15.0656 13.8897 15.1532 14.1012 15.1532 14.3218C15.1532 14.5423 15.0656 14.7538 14.9097 14.9097C14.7538 15.0656 14.5423 15.1532 14.3218 15.1532C14.1012 15.1532 13.8897 15.0656 13.7338 14.9097L11 12.1742L8.26619 14.9097C8.18898 14.9869 8.09732 15.0482 7.99644 15.09C7.89556 15.1317 7.78744 15.1532 7.67824 15.1532C7.56905 15.1532 7.46093 15.1317 7.36005 15.09C7.25916 15.0482 7.1675 14.9869 7.09029 14.9097C7.01308 14.8325 6.95183 14.7408 6.91005 14.64C6.86826 14.5391 6.84675 14.431 6.84675 14.3218C6.84675 14.2126 6.86826 14.1044 6.91005 14.0036C6.95183 13.9027 7.01308 13.811 7.09029 13.7338L9.82576 11L7.09029 8.26619C6.93436 8.11026 6.84675 7.89877 6.84675 7.67824C6.84675 7.45772 6.93436 7.24623 7.09029 7.09029C7.24623 6.93436 7.45772 6.84675 7.67824 6.84675C7.89877 6.84675 8.11026 6.93436 8.26619 7.09029L11 9.82576L13.7338 7.09029C13.8109 7.01296 13.9026 6.9516 14.0035 6.90973C14.1044 6.86787 14.2125 6.84632 14.3218 6.84632C14.431 6.84632 14.5391 6.86787 14.64 6.90973C14.7409 6.9516 14.8326 7.01462 14.9097 7.09195Z" fill="#FF0707"/>
</svg>
