<svg width="9" height="12" viewBox="0 0 9 12" fill="none" xmlns="http://www.w3.org/2000/svg">
<path d="M1.5 0C0.672656 0 0 0.672656 0 1.5V10.5C0 11.3273 0.672656 12 1.5 12H7.5C8.32734 12 9 11.3273 9 10.5V3.75H6C5.58516 3.75 5.25 3.41484 5.25 3V0H1.5ZM6 0V3H9L6 0ZM1.875 1.5H3.375C3.58125 1.5 3.75 1.66875 3.75 1.875C3.75 2.08125 3.58125 2.25 3.375 2.25H1.875C1.66875 2.25 1.5 2.08125 1.5 1.875C1.5 1.66875 1.66875 1.5 1.875 1.5ZM1.875 3H3.375C3.58125 3 3.75 3.16875 3.75 3.375C3.75 3.58125 3.58125 3.75 3.375 3.75H1.875C1.66875 3.75 1.5 3.58125 1.5 3.375C1.5 3.16875 1.66875 3 1.875 3ZM2.25 5.25H6.75C7.16484 5.25 7.5 5.58516 7.5 6V7.5C7.5 7.91484 7.16484 8.25 6.75 8.25H2.25C1.83516 8.25 1.5 7.91484 1.5 7.5V6C1.5 5.58516 1.83516 5.25 2.25 5.25ZM2.25 6V7.5H6.75V6H2.25ZM5.625 9.75H7.125C7.33125 9.75 7.5 9.91875 7.5 10.125C7.5 10.3313 7.33125 10.5 7.125 10.5H5.625C5.41875 10.5 5.25 10.3313 5.25 10.125C5.25 9.91875 5.41875 9.75 5.625 9.75Z" fill="white"/>
</svg>
