<svg width="57" height="50" viewBox="0 0 57 50" fill="none" xmlns="http://www.w3.org/2000/svg">
<rect width="57" height="50" rx="5" fill="#1569BD" fillOpacity="0.06"/>
<path d="M36 18.6C36 18.04 36 17.76 35.89 17.546C35.7945 17.3579 35.6419 17.2049 35.454 17.109C35.24 17 34.96 17 34.4 17H21.6C21.04 17 20.76 17 20.546 17.109C20.3578 17.2049 20.2049 17.3578 20.109 17.546C20 17.76 20 18.04 20 18.6V19.337C20 19.582 20 19.704 20.028 19.819C20.0525 19.9214 20.093 20.0193 20.148 20.109C20.209 20.209 20.296 20.296 20.468 20.469L25.531 25.531C25.704 25.704 25.791 25.791 25.852 25.891C25.907 25.981 25.948 26.079 25.972 26.181C26 26.295 26 26.416 26 26.655V31.411C26 32.268 26 32.697 26.18 32.955C26.2581 33.0666 26.3582 33.161 26.4741 33.2326C26.59 33.3041 26.7192 33.3512 26.854 33.371C27.165 33.417 27.549 33.226 28.315 32.842L29.115 32.442C29.437 32.282 29.597 32.202 29.714 32.082C29.8178 31.976 29.8967 31.8483 29.945 31.708C30 31.55 30 31.37 30 31.011V26.663C30 26.418 30 26.296 30.028 26.181C30.0525 26.0786 30.093 25.9807 30.148 25.891C30.208 25.791 30.295 25.705 30.465 25.535L30.469 25.531L35.532 20.469C35.704 20.296 35.79 20.209 35.852 20.109C35.9071 20.0193 35.9476 19.9214 35.972 19.819C36 19.706 36 19.584 36 19.345V18.6Z" stroke="#1569BD" strokeWidth="2" strokeLinecap="round" strokeLinejoin="round"/>
</svg>
