<svg width="58" height="40" viewBox="0 0 58 40" fill="none" xmlns="http://www.w3.org/2000/svg">
<rect x="0.998047" width="57" height="40" rx="5" fill="#1569BD" fillOpacity="0.06"/>
<path d="M36.998 13.6C36.998 13.04 36.998 12.76 36.888 12.546C36.7925 12.3579 36.6399 12.2049 36.452 12.109C36.238 12 35.958 12 35.398 12H22.598C22.038 12 21.758 12 21.544 12.109C21.3559 12.2049 21.2029 12.3578 21.107 12.546C20.998 12.76 20.998 13.04 20.998 13.6V14.337C20.998 14.582 20.998 14.704 21.026 14.819C21.0505 14.9214 21.091 15.0193 21.146 15.109C21.207 15.209 21.294 15.296 21.466 15.469L26.529 20.531C26.702 20.704 26.789 20.791 26.85 20.891C26.905 20.981 26.946 21.079 26.97 21.181C26.998 21.295 26.998 21.416 26.998 21.655V26.411C26.998 27.268 26.998 27.697 27.178 27.955C27.2561 28.0666 27.3562 28.161 27.4721 28.2326C27.588 28.3041 27.7173 28.3512 27.852 28.371C28.163 28.417 28.547 28.226 29.313 27.842L30.113 27.442C30.435 27.282 30.595 27.202 30.712 27.082C30.8158 26.976 30.8947 26.8483 30.943 26.708C30.998 26.55 30.998 26.37 30.998 26.011V21.663C30.998 21.418 30.998 21.296 31.026 21.181C31.0505 21.0786 31.091 20.9807 31.146 20.891C31.206 20.791 31.293 20.705 31.463 20.535L31.467 20.531L36.53 15.469C36.702 15.296 36.788 15.209 36.85 15.109C36.9052 15.0193 36.9457 14.9214 36.97 14.819C36.998 14.706 36.998 14.584 36.998 14.345V13.6Z" stroke="#1569BD" strokeWidth="2" strokeLinecap="round" strokeLinejoin="round"/>
</svg>
