<svg width="23" height="23" viewBox="0 0 23 23" fill="none" xmlns="http://www.w3.org/2000/svg">
<path id="Vector" d="M0 0V10H22V0H0ZM12 6H3V4H12V6ZM15 6C14.8022 6 14.6089 5.94135 14.4444 5.83147C14.28 5.72159 14.1518 5.56541 14.0761 5.38268C14.0004 5.19996 13.9806 4.99889 14.0192 4.80491C14.0578 4.61093 14.153 4.43275 14.2929 4.29289C14.4327 4.15304 14.6109 4.0578 14.8049 4.01921C14.9989 3.98063 15.2 4.00043 15.3827 4.07612C15.5654 4.15181 15.7216 4.27998 15.8315 4.44443C15.9414 4.60888 16 4.80222 16 5C16 5.26522 15.8946 5.51957 15.7071 5.70711C15.5196 5.89464 15.2652 6 15 6ZM18 6C17.8022 6 17.6089 5.94135 17.4444 5.83147C17.28 5.72159 17.1518 5.56541 17.0761 5.38268C17.0004 5.19996 16.9806 4.99889 17.0192 4.80491C17.0578 4.61093 17.153 4.43275 17.2929 4.29289C17.4327 4.15304 17.6109 4.0578 17.8049 4.01921C17.9989 3.98063 18.2 4.00043 18.3827 4.07612C18.5654 4.15181 18.7216 4.27998 18.8315 4.44443C18.9414 4.60888 19 4.80222 19 5C19 5.26522 18.8946 5.51957 18.7071 5.70711C18.5196 5.89464 18.2652 6 18 6ZM21.69 17.37L22.83 16.37L21.83 14.64L20.38 15.13C20.0589 14.8594 19.6936 14.6463 19.3 14.5L19 13H17L16.7 14.49C16.3064 14.6362 15.941 14.8494 15.62 15.12L14.17 14.63L13.17 16.36L14.31 17.36C14.23 17.7762 14.23 18.2038 14.31 18.62L13.17 19.62L14.17 21.35L15.62 20.86C15.941 21.1306 16.3064 21.3438 16.7 21.49L17 23H19L19.3 21.51C19.6936 21.3638 20.059 21.1506 20.38 20.88L21.83 21.37L22.83 19.64L21.69 18.64C21.77 18.2204 21.77 17.7896 21.69 17.37ZM18 20C17.6044 20 17.2178 19.8827 16.8889 19.6629C16.56 19.4432 16.3036 19.1308 16.1522 18.7654C16.0009 18.3999 15.9613 17.9978 16.0384 17.6098C16.1156 17.2219 16.3061 16.8655 16.5858 16.5858C16.8655 16.3061 17.2219 16.1156 17.6098 16.0384C17.9978 15.9613 18.3999 16.0009 18.7654 16.1522C19.1308 16.3036 19.4432 16.56 19.6629 16.8889C19.8827 17.2178 20 17.6044 20 18C19.9984 18.5299 19.7872 19.0377 19.4125 19.4125C19.0377 19.7872 18.5299 19.9984 18 20Z" fill="#1569BD"/>
</svg>
