<?xml version="1.0" encoding="utf-8"?>
<!-- Generator: Adobe Illustrator 26.1.0, SVG Export Plug-In . SVG Version: 6.00 Build 0)  -->
<!DOCTYPE svg PUBLIC "-//W3C//DTD SVG 1.1//EN" "http://www.w3.org/Graphics/SVG/1.1/DTD/svg11.dtd" [
	<!ENTITY ns_extend "http://ns.adobe.com/Extensibility/1.0/">
	<!ENTITY ns_ai "http://ns.adobe.com/AdobeIllustrator/10.0/">
	<!ENTITY ns_graphs "http://ns.adobe.com/Graphs/1.0/">
	<!ENTITY ns_vars "http://ns.adobe.com/Variables/1.0/">
	<!ENTITY ns_imrep "http://ns.adobe.com/ImageReplacement/1.0/">
	<!ENTITY ns_sfw "http://ns.adobe.com/SaveForWeb/1.0/">
	<!ENTITY ns_custom "http://ns.adobe.com/GenericCustomNamespace/1.0/">
	<!ENTITY ns_adobe_xpath "http://ns.adobe.com/XPath/1.0/">
]>
<svg version="1.1" id="Layer_1" xmlns:x="&ns_extend;" xmlns:i="&ns_ai;" xmlns:graph="&ns_graphs;"
	 xmlns="http://www.w3.org/2000/svg" xmlns:xlink="http://www.w3.org/1999/xlink" x="0px" y="0px" viewBox="0 0 500 500"
	 style="enable-background:new 0 0 500 500;" xml:space="preserve">
<style type="text/css">
	.st0{fill:#F7B614;}
	.st1{fill:#353535;}
</style>
<metadata>
	<sfw  xmlns="&ns_sfw;">
		<slices></slices>
		<sliceSourceBounds  bottomLeftOrigin="true" height="255.2" width="362.8" x="68.5" y="784.4"></sliceSourceBounds>
	</sfw>
</metadata>
<g>
	<path className="st0" d="M91.7,302.5c2.4,1.5,3.7,3.8,3.8,6.8v0.5h-8.9v-0.2c0-0.9-0.3-1.6-0.9-2.2c-0.6-0.6-1.6-0.9-2.9-0.9
		c-1.3,0-2.2,0.2-2.9,0.6c-0.7,0.4-1,0.8-1,1.4c0,0.8,0.5,1.4,1.4,1.7c0.9,0.4,2.4,0.8,4.4,1.2c2.4,0.5,4.4,1,5.9,1.5
		c1.5,0.5,2.9,1.4,4,2.6c1.2,1.2,1.7,2.8,1.8,4.9c0,3.5-1.2,6.1-3.6,7.8c-2.4,1.7-5.5,2.5-9.5,2.5c-4.6,0-8.2-0.8-10.8-2.3
		c-2.6-1.6-3.9-4.3-3.9-8.2h9c0,1.5,0.4,2.5,1.2,3c0.8,0.5,2,0.8,3.6,0.8c1.2,0,2.2-0.1,3-0.4c0.8-0.3,1.2-0.8,1.2-1.6
		c0-0.7-0.4-1.3-1.3-1.6c-0.9-0.4-2.3-0.7-4.3-1.1c-2.4-0.5-4.4-1.1-6-1.6c-1.6-0.6-3-1.5-4.1-2.8c-1.2-1.3-1.8-3.1-1.8-5.3
		c0-3.3,1.3-5.6,3.8-7.2c2.5-1.5,5.7-2.3,9.6-2.3C86.2,300.2,89.3,301,91.7,302.5z"/>
	<path className="st0" d="M101.1,300.7h25.7v7.1h-16.1v4.1h13.8v6.8h-13.8v4.5h16.5v7.1h-26V300.7z"/>
	<path className="st0" d="M132.2,300.7h9.5v22.1H157v7.6h-24.8V300.7z"/>
	<path className="st0" d="M161,300.7h9.5v22.1h15.2v7.6H161V300.7z"/>
	<path className="st0" d="M189.8,300.7h25.7v7.1h-16.1v4.1h13.8v6.8h-13.8v4.5h16.5v7.1h-26V300.7z"/>
	<path className="st0" d="M247.7,314.8c-1,1.5-2.4,2.5-4.3,3.2l6.6,12.4h-10.7l-5.3-10.8h-3.5v10.8H221v-29.7h18.2c2.1,0,4,0.4,5.5,1.2
		c1.5,0.8,2.6,1.9,3.4,3.3c0.8,1.4,1.1,2.9,1.1,4.6C249.2,311.6,248.7,313.3,247.7,314.8z M238.7,308.3c-0.5-0.5-1.2-0.8-1.9-0.8
		h-6.3v5.5h6.3c0.7,0,1.4-0.3,1.9-0.8c0.5-0.5,0.8-1.2,0.8-2S239.2,308.8,238.7,308.3z"/>
</g>
<g>
	<path className="st1" d="M261,330.4v-29.9h0l16,22.6l-2.4-0.5l15.9-22.1h0.1v29.9h-5.7v-17.1l0.4,2.9l-9.7,13.8h-0.1l-10-13.8l1-2.7
		v16.9H261z"/>
	<path className="st1" d="M298,301.7h19.6v5.5h-13.9v6.1H316v5.5h-12.3v6.2h14.5v5.5H298V301.7z"/>
	<path className="st1" d="M322,301.7h19.3v5.5h-7v23.2h-5.7v-23.2H322V301.7z"/>
	<path className="st1" d="M355.5,301.7c1.8,0,3.4,0.2,4.8,0.7c1.4,0.5,2.6,1.1,3.5,2c0.9,0.8,1.7,1.9,2.2,3c0.5,1.2,0.7,2.5,0.7,4
		c0,1.2-0.2,2.3-0.5,3.5c-0.4,1.2-0.9,2.2-1.7,3.2c-0.8,1-1.8,1.7-3.1,2.3c-1.3,0.6-2.9,0.9-4.8,0.9h-4.1v9.1h-5.7v-28.7H355.5z
		 M356.5,315.8c0.9,0,1.6-0.1,2.1-0.4c0.6-0.3,1-0.6,1.3-1.1c0.3-0.4,0.6-0.9,0.7-1.4s0.2-0.9,0.2-1.3c0-0.3,0-0.7-0.1-1.2
		s-0.3-1-0.6-1.5s-0.7-0.9-1.3-1.2s-1.4-0.5-2.4-0.5h-4.1v8.7H356.5z M361.8,319.4l7.1,11.1h-6.6l-7.3-10.9L361.8,319.4z"/>
	<path className="st1" d="M373.6,301.7h5.7v28.7h-5.7V301.7z"/>
	<path className="st1" d="M408.2,328.1c-0.3,0.3-0.9,0.6-1.7,1.1c-0.8,0.4-1.9,0.8-3.1,1.2c-1.2,0.3-2.6,0.5-4.1,0.5
		c-2.3-0.1-4.3-0.5-6.1-1.2c-1.8-0.8-3.3-1.8-4.5-3.1c-1.2-1.3-2.2-2.8-2.8-4.6c-0.6-1.7-1-3.5-1-5.5c0-2.2,0.3-4.2,1-6
		s1.6-3.4,2.8-4.7c1.2-1.3,2.7-2.4,4.4-3.1c1.7-0.7,3.6-1.1,5.7-1.1c1.9,0,3.6,0.3,5.1,0.8c1.5,0.5,2.7,1.1,3.6,1.7l-2.2,5.3
		c-0.7-0.5-1.5-1-2.6-1.5c-1.1-0.5-2.3-0.8-3.7-0.8c-1.1,0-2.1,0.2-3.1,0.7c-1,0.5-1.9,1.1-2.7,1.9c-0.8,0.8-1.4,1.8-1.8,2.9
		c-0.4,1.1-0.7,2.3-0.7,3.6c0,1.4,0.2,2.6,0.6,3.8c0.4,1.1,1,2.1,1.7,2.9c0.8,0.8,1.7,1.5,2.7,1.9c1.1,0.4,2.2,0.7,3.6,0.7
		c1.5,0,2.8-0.2,3.9-0.7c1.1-0.5,1.9-1,2.5-1.6L408.2,328.1z"/>
	<path className="st1" d="M429.2,308.7c-1.1-0.6-2.2-1.1-3.3-1.5c-1.1-0.4-2.2-0.6-3.2-0.6c-1.2,0-2.2,0.2-2.9,0.7
		c-0.7,0.5-1.1,1.2-1.1,2.2c0,0.7,0.3,1.3,0.8,1.8c0.5,0.5,1.2,1,2.1,1.4c0.8,0.4,1.7,0.8,2.6,1.1c0.8,0.3,1.7,0.7,2.5,1.1
		c0.8,0.4,1.6,1,2.2,1.6c0.7,0.6,1.2,1.4,1.6,2.4s0.6,2.1,0.6,3.5c0,1.5-0.4,2.8-1.1,4.1c-0.8,1.2-1.9,2.3-3.3,3
		c-1.5,0.8-3.3,1.2-5.4,1.2c-1.1,0-2.2-0.1-3.3-0.3s-2.2-0.6-3.3-1s-2.1-1-3.2-1.7l2.5-4.4c0.7,0.5,1.4,0.9,2.2,1.3
		c0.8,0.4,1.6,0.7,2.4,0.9c0.8,0.2,1.5,0.3,2.2,0.3s1.4-0.1,2-0.3c0.7-0.2,1.3-0.5,1.7-1c0.5-0.5,0.7-1.1,0.7-1.9
		c0-0.6-0.2-1.1-0.6-1.6s-0.9-0.9-1.5-1.3c-0.6-0.4-1.3-0.7-2.1-1c-0.9-0.3-1.8-0.7-2.7-1.2c-0.9-0.4-1.8-1-2.6-1.6
		c-0.8-0.6-1.5-1.4-2-2.4c-0.5-0.9-0.8-2.1-0.8-3.5c0-1.7,0.4-3.1,1.1-4.3c0.7-1.2,1.8-2.2,3.1-2.9c1.4-0.7,2.9-1.1,4.7-1.2
		c2.3,0,4.2,0.3,5.6,0.8c1.4,0.5,2.7,1.2,3.9,2L429.2,308.7z"/>
</g>
<g>
	<path className="st1" d="M80,354.9c-0.4-0.2-0.7-0.3-1.1-0.5c-0.4-0.1-0.8-0.2-1.2-0.2c-0.5,0-0.9,0.1-1.2,0.4c-0.3,0.2-0.5,0.6-0.5,1
		c0,0.3,0.1,0.5,0.3,0.8c0.2,0.2,0.5,0.4,0.8,0.6c0.3,0.2,0.7,0.3,1,0.4c0.3,0.1,0.6,0.2,0.9,0.4c0.3,0.2,0.6,0.3,0.8,0.6
		c0.2,0.2,0.4,0.5,0.6,0.8c0.1,0.3,0.2,0.7,0.2,1.2c0,0.5-0.1,1-0.4,1.5c-0.3,0.4-0.6,0.8-1.1,1c-0.5,0.3-1.1,0.4-1.8,0.4
		c-0.4,0-0.8,0-1.3-0.1c-0.4-0.1-0.8-0.2-1.1-0.4s-0.7-0.3-1-0.5l0.7-1.2c0.2,0.2,0.5,0.3,0.8,0.5c0.3,0.1,0.6,0.3,0.9,0.3
		c0.3,0.1,0.6,0.1,0.9,0.1c0.3,0,0.6-0.1,0.9-0.2s0.5-0.3,0.7-0.5c0.2-0.2,0.3-0.5,0.3-0.9c0-0.3-0.1-0.6-0.3-0.8
		c-0.2-0.2-0.4-0.4-0.7-0.6c-0.3-0.2-0.6-0.3-0.9-0.4c-0.3-0.1-0.6-0.3-1-0.4s-0.6-0.3-0.9-0.5c-0.3-0.2-0.5-0.5-0.7-0.8
		c-0.2-0.3-0.3-0.7-0.3-1.2c0-0.5,0.1-1,0.4-1.4c0.3-0.4,0.6-0.7,1.1-1c0.5-0.2,1-0.4,1.6-0.4c0.7,0,1.3,0.1,1.8,0.3
		c0.5,0.2,1,0.4,1.3,0.6L80,354.9z"/>
	<path className="st1" d="M85.3,352.9H92v1.4h-5.2v2.9h4.6v1.4h-4.6v2.9h5.4v1.4h-6.9V352.9z"/>
	<path className="st1" d="M97,352.9h1.5v8.7h5.1v1.4H97V352.9z"/>
	<path className="st1" d="M108.3,352.9h1.5v8.7h5.1v1.4h-6.6V352.9z"/>
	<path className="st1" d="M119.5,352.9h6.7v1.4H121v2.9h4.6v1.4H121v2.9h5.4v1.4h-6.9V352.9z"/>
	<path className="st1" d="M134,352.9c0.5,0,1,0.1,1.5,0.2c0.5,0.1,0.8,0.4,1.2,0.6c0.3,0.3,0.6,0.6,0.8,1c0.2,0.4,0.3,0.9,0.3,1.4
		c0,0.4-0.1,0.8-0.2,1.2c-0.1,0.4-0.3,0.7-0.6,1.1c-0.3,0.3-0.6,0.6-1.1,0.8c-0.4,0.2-1,0.3-1.6,0.3h-1.5v3.6h-1.5v-10.2H134z
		 M134.1,358c0.4,0,0.7-0.1,1-0.2s0.5-0.3,0.6-0.5s0.2-0.4,0.3-0.6s0.1-0.4,0.1-0.6c0-0.2,0-0.4-0.1-0.6c-0.1-0.2-0.2-0.4-0.3-0.6
		s-0.3-0.3-0.6-0.5s-0.5-0.2-0.9-0.2h-1.5v3.7H134.1z M135.8,358.9l2.6,4.2h-1.7l-2.7-4.2L135.8,358.9z"/>
	<path className="st1" d="M157.4,362.3c-0.1,0.1-0.4,0.2-0.7,0.4c-0.3,0.1-0.6,0.3-1,0.4c-0.4,0.1-0.8,0.1-1.3,0.1
		c-0.8,0-1.5-0.1-2.1-0.4s-1.2-0.6-1.6-1.1c-0.4-0.5-0.8-1-1-1.6c-0.2-0.6-0.4-1.3-0.4-2c0-0.8,0.1-1.5,0.4-2.1
		c0.2-0.6,0.6-1.2,1-1.7c0.5-0.5,1-0.8,1.6-1.1c0.6-0.3,1.3-0.4,2-0.4c0.6,0,1.2,0.1,1.7,0.3s0.9,0.4,1.3,0.6l-0.6,1.4
		c-0.3-0.2-0.6-0.4-1-0.5c-0.4-0.2-0.8-0.3-1.3-0.3c-0.5,0-0.9,0.1-1.4,0.3c-0.4,0.2-0.8,0.5-1.1,0.8s-0.6,0.7-0.8,1.2
		c-0.2,0.5-0.3,0.9-0.3,1.5c0,0.5,0.1,1,0.3,1.5s0.4,0.9,0.7,1.2c0.3,0.3,0.7,0.6,1.1,0.8c0.4,0.2,0.9,0.3,1.5,0.3
		c0.5,0,1-0.1,1.4-0.2c0.4-0.2,0.7-0.3,1-0.5L157.4,362.3z"/>
	<path className="st1" d="M162.1,352.9h6.7v1.4h-5.2v2.9h4.6v1.4h-4.6v2.9h5.4v1.4h-6.9V352.9z"/>
	<path className="st1" d="M182.7,363.4l-7.8-7.8l0.4,0.1l0,7.3h-1.5v-10.5h0.1l7.7,7.8l-0.4-0.1l0-7.4h1.5L182.7,363.4L182.7,363.4z"/>
	<path className="st1" d="M187.3,352.9h6.8v1.4h-2.7v8.7h-1.5v-8.7h-2.6V352.9z"/>
	<path className="st1" d="M201.5,352.9c0.5,0,1,0.1,1.5,0.2c0.5,0.1,0.8,0.4,1.2,0.6c0.3,0.3,0.6,0.6,0.8,1c0.2,0.4,0.3,0.9,0.3,1.4
		c0,0.4-0.1,0.8-0.2,1.2c-0.1,0.4-0.3,0.7-0.6,1.1c-0.3,0.3-0.6,0.6-1.1,0.8c-0.4,0.2-1,0.3-1.6,0.3h-1.5v3.6h-1.5v-10.2H201.5z
		 M201.7,358c0.4,0,0.7-0.1,1-0.2s0.5-0.3,0.6-0.5s0.2-0.4,0.3-0.6s0.1-0.4,0.1-0.6c0-0.2,0-0.4-0.1-0.6c-0.1-0.2-0.2-0.4-0.3-0.6
		s-0.3-0.3-0.6-0.5s-0.5-0.2-0.9-0.2h-1.5v3.7H201.7z M203.4,358.9l2.6,4.2h-1.7l-2.7-4.2L203.4,358.9z"/>
	<path className="st1" d="M209.5,363.1l4.5-10.6h0.1l4.5,10.6h-1.7l-3.2-8.2l1.1-0.7l-3.7,8.9H209.5z M212.2,359.3h3.6l0.5,1.3h-4.6
		L212.2,359.3z"/>
	<path className="st1" d="M222.8,352.9h1.5v8.7h5.1v1.4h-6.6V352.9z"/>
	<path className="st1" d="M241,363.1v-10.2h2.8c1,0,1.9,0.2,2.6,0.5c0.7,0.3,1.3,0.7,1.7,1.2c0.4,0.5,0.8,1.1,1,1.7
		c0.2,0.6,0.3,1.2,0.3,1.9c0,0.8-0.1,1.4-0.4,2c-0.3,0.6-0.6,1.1-1.1,1.6c-0.5,0.4-1,0.8-1.6,1s-1.3,0.3-1.9,0.3H241z M242.5,361.6
		h1.5c0.6,0,1.1-0.1,1.5-0.2c0.5-0.2,0.9-0.4,1.2-0.7c0.3-0.3,0.6-0.7,0.8-1.1c0.2-0.4,0.3-1,0.3-1.5c0-0.6-0.1-1.2-0.3-1.6
		c-0.2-0.5-0.5-0.8-0.8-1.1c-0.3-0.3-0.7-0.5-1.2-0.7s-0.9-0.2-1.3-0.2h-1.7V361.6z"/>
	<path className="st1" d="M252.5,363.1l4.5-10.6h0.1l4.5,10.6h-1.7l-3.2-8.2l1.1-0.7l-3.7,8.9H252.5z M255.2,359.3h3.6l0.5,1.3h-4.6
		L255.2,359.3z"/>
	<path className="st1" d="M264.3,352.9h6.8v1.4h-2.7v8.7h-1.5v-8.7h-2.6V352.9z"/>
	<path className="st1" d="M273.8,363.1l4.5-10.6h0.1l4.5,10.6h-1.7l-3.2-8.2l1.1-0.7l-3.7,8.9H273.8z M276.5,359.3h3.6l0.5,1.3h-4.6
		L276.5,359.3z"/>
	<path className="st1" d="M296.9,352.9c0.5,0,1,0.1,1.5,0.2c0.5,0.1,0.8,0.4,1.2,0.6c0.3,0.3,0.6,0.6,0.8,1c0.2,0.4,0.3,0.9,0.3,1.4
		c0,0.4-0.1,0.8-0.2,1.2c-0.1,0.4-0.3,0.7-0.6,1.1c-0.3,0.3-0.6,0.6-1.1,0.8s-1,0.3-1.6,0.3h-1.5v3.6h-1.5v-10.2H296.9z M297,358
		c0.4,0,0.7-0.1,1-0.2s0.5-0.3,0.6-0.5c0.1-0.2,0.2-0.4,0.3-0.6s0.1-0.4,0.1-0.6c0-0.2,0-0.4-0.1-0.6c-0.1-0.2-0.2-0.4-0.3-0.6
		c-0.1-0.2-0.3-0.3-0.6-0.5c-0.2-0.1-0.5-0.2-0.9-0.2h-1.5v3.7H297z M298.8,358.9l2.6,4.2h-1.7l-2.7-4.2L298.8,358.9z"/>
	<path className="st1" d="M305.9,352.9h6.7v1.4h-5.2v2.9h4.6v1.4h-4.6v2.9h5.4v1.4h-6.9V352.9z"/>
	<path className="st1" d="M317.5,363.1v-10.2h2.8c1,0,1.9,0.2,2.6,0.5c0.7,0.3,1.3,0.7,1.7,1.2c0.4,0.5,0.8,1.1,1,1.7
		c0.2,0.6,0.3,1.2,0.3,1.9c0,0.8-0.1,1.4-0.4,2c-0.3,0.6-0.6,1.1-1.1,1.6c-0.5,0.4-1,0.8-1.6,1s-1.3,0.3-1.9,0.3H317.5z M319,361.6
		h1.5c0.6,0,1.1-0.1,1.5-0.2c0.5-0.2,0.9-0.4,1.2-0.7c0.3-0.3,0.6-0.7,0.8-1.1c0.2-0.4,0.3-1,0.3-1.5c0-0.6-0.1-1.2-0.3-1.6
		c-0.2-0.5-0.5-0.8-0.8-1.1c-0.3-0.3-0.7-0.5-1.2-0.7s-0.9-0.2-1.3-0.2H319V361.6z"/>
	<path className="st1" d="M330.6,352.9h1.5v10.2h-1.5V352.9z"/>
	<path className="st1" d="M342.8,354.9c-0.4-0.2-0.7-0.3-1.1-0.5c-0.4-0.1-0.8-0.2-1.2-0.2c-0.5,0-0.9,0.1-1.2,0.4
		c-0.3,0.2-0.5,0.6-0.5,1c0,0.3,0.1,0.5,0.3,0.8c0.2,0.2,0.5,0.4,0.8,0.6c0.3,0.2,0.7,0.3,1,0.4c0.3,0.1,0.6,0.2,0.9,0.4
		c0.3,0.2,0.6,0.3,0.8,0.6c0.2,0.2,0.4,0.5,0.6,0.8c0.1,0.3,0.2,0.7,0.2,1.2c0,0.5-0.1,1-0.4,1.5c-0.3,0.4-0.6,0.8-1.1,1
		c-0.5,0.3-1.1,0.4-1.8,0.4c-0.4,0-0.8,0-1.3-0.1c-0.4-0.1-0.8-0.2-1.1-0.4s-0.7-0.3-1-0.5l0.7-1.2c0.2,0.2,0.5,0.3,0.8,0.5
		c0.3,0.1,0.6,0.3,0.9,0.3s0.6,0.1,0.9,0.1c0.3,0,0.6-0.1,0.9-0.2c0.3-0.1,0.5-0.3,0.7-0.5c0.2-0.2,0.3-0.5,0.3-0.9
		c0-0.3-0.1-0.6-0.3-0.8c-0.2-0.2-0.4-0.4-0.7-0.6c-0.3-0.2-0.6-0.3-0.9-0.4c-0.3-0.1-0.6-0.3-1-0.4c-0.3-0.1-0.6-0.3-0.9-0.5
		c-0.3-0.2-0.5-0.5-0.7-0.8s-0.3-0.7-0.3-1.2c0-0.5,0.1-1,0.4-1.4s0.6-0.7,1.1-1s1-0.4,1.6-0.4c0.7,0,1.3,0.1,1.8,0.3s1,0.4,1.3,0.6
		L342.8,354.9z"/>
	<path className="st1" d="M355.6,362.3c-0.1,0.1-0.4,0.2-0.7,0.4c-0.3,0.1-0.6,0.3-1,0.4s-0.8,0.1-1.3,0.1c-0.8,0-1.5-0.1-2.1-0.4
		c-0.6-0.3-1.2-0.6-1.6-1.1s-0.8-1-1-1.6c-0.2-0.6-0.4-1.3-0.4-2c0-0.8,0.1-1.5,0.4-2.1c0.2-0.6,0.6-1.2,1-1.7
		c0.5-0.5,1-0.8,1.6-1.1c0.6-0.3,1.3-0.4,2-0.4c0.6,0,1.2,0.1,1.7,0.3s0.9,0.4,1.3,0.6l-0.6,1.4c-0.3-0.2-0.6-0.4-1-0.5
		c-0.4-0.2-0.8-0.3-1.3-0.3c-0.5,0-0.9,0.1-1.4,0.3s-0.8,0.5-1.1,0.8c-0.3,0.3-0.6,0.7-0.8,1.2c-0.2,0.5-0.3,0.9-0.3,1.5
		c0,0.5,0.1,1,0.3,1.5c0.2,0.5,0.4,0.9,0.7,1.2c0.3,0.3,0.7,0.6,1.1,0.8c0.4,0.2,0.9,0.3,1.5,0.3c0.5,0,1-0.1,1.4-0.2
		c0.4-0.2,0.7-0.3,1-0.5L355.6,362.3z"/>
	<path className="st1" d="M359.7,358c0-0.7,0.1-1.4,0.4-2c0.3-0.6,0.6-1.2,1.1-1.7c0.5-0.5,1-0.9,1.7-1.1s1.3-0.4,2-0.4
		c0.7,0,1.4,0.1,2,0.4c0.6,0.3,1.2,0.7,1.7,1.1c0.5,0.5,0.9,1,1.1,1.7c0.3,0.6,0.4,1.3,0.4,2c0,0.7-0.1,1.4-0.4,2
		c-0.3,0.6-0.6,1.2-1.1,1.7c-0.5,0.5-1,0.8-1.7,1.1s-1.3,0.4-2,0.4c-0.7,0-1.4-0.1-2-0.4c-0.6-0.3-1.2-0.6-1.7-1.1
		c-0.5-0.5-0.8-1-1.1-1.7C359.8,359.4,359.7,358.7,359.7,358z M361.3,358c0,0.5,0.1,1,0.3,1.5c0.2,0.5,0.5,0.8,0.8,1.2
		s0.7,0.6,1.2,0.8s0.9,0.3,1.4,0.3c0.5,0,1-0.1,1.4-0.3c0.4-0.2,0.8-0.5,1.2-0.8s0.6-0.7,0.8-1.2c0.2-0.5,0.3-0.9,0.3-1.5
		c0-0.5-0.1-1-0.3-1.5c-0.2-0.5-0.5-0.9-0.8-1.2c-0.3-0.3-0.7-0.6-1.2-0.8s-0.9-0.3-1.4-0.3c-0.5,0-1,0.1-1.4,0.3s-0.8,0.5-1.2,0.8
		c-0.3,0.3-0.6,0.7-0.8,1.2C361.3,357,361.3,357.5,361.3,358z"/>
	<path className="st1" d="M375.1,352.9l3.3,8.2l-0.9-0.2l3.1-8h1.8l-4.5,10.6l-4.5-10.6H375.1z"/>
	<path className="st1" d="M386.8,352.9h6.7v1.4h-5.2v2.9h4.6v1.4h-4.6v2.9h5.4v1.4h-6.9V352.9z"/>
	<path className="st1" d="M401.2,352.9c0.5,0,1,0.1,1.5,0.2c0.5,0.1,0.8,0.4,1.2,0.6c0.3,0.3,0.6,0.6,0.8,1c0.2,0.4,0.3,0.9,0.3,1.4
		c0,0.4-0.1,0.8-0.2,1.2c-0.1,0.4-0.3,0.7-0.6,1.1c-0.3,0.3-0.6,0.6-1.1,0.8s-1,0.3-1.6,0.3h-1.5v3.6h-1.5v-10.2H401.2z M401.4,358
		c0.4,0,0.7-0.1,1-0.2s0.5-0.3,0.6-0.5c0.1-0.2,0.2-0.4,0.3-0.6s0.1-0.4,0.1-0.6c0-0.2,0-0.4-0.1-0.6c-0.1-0.2-0.2-0.4-0.3-0.6
		c-0.1-0.2-0.3-0.3-0.6-0.5c-0.2-0.1-0.5-0.2-0.9-0.2h-1.5v3.7H401.4z M403.1,358.9l2.6,4.2H404l-2.7-4.2L403.1,358.9z"/>
	<path className="st1" d="M410.2,352.9h6.7v1.4h-5.2v2.9h4.6v1.4h-4.6v2.9h5.4v1.4h-6.9V352.9z"/>
	<path className="st1" d="M421.9,363.1v-10.2h2.8c1,0,1.9,0.2,2.6,0.5c0.7,0.3,1.3,0.7,1.7,1.2c0.4,0.5,0.8,1.1,1,1.7
		c0.2,0.6,0.3,1.2,0.3,1.9c0,0.8-0.1,1.4-0.4,2c-0.3,0.6-0.6,1.1-1.1,1.6c-0.5,0.4-1,0.8-1.6,1s-1.3,0.3-1.9,0.3H421.9z
		 M423.4,361.6h1.5c0.6,0,1.1-0.1,1.5-0.2c0.5-0.2,0.9-0.4,1.2-0.7c0.3-0.3,0.6-0.7,0.8-1.1c0.2-0.4,0.3-1,0.3-1.5
		c0-0.6-0.1-1.2-0.3-1.6c-0.2-0.5-0.5-0.8-0.8-1.1c-0.3-0.3-0.7-0.5-1.2-0.7s-0.9-0.2-1.3-0.2h-1.7V361.6z"/>
</g>
<g>
	<path className="st0" d="M328.1,192.3c0,42.2-31.1,77.1-71.6,83v-10.7c34.8-5.8,61.3-36,61.3-72.4c0-40.5-32.9-73.4-73.4-73.4
		c-2.9,0-5.8,0.2-8.6,0.5v50.3h-8.7v-59.5c2.8-0.6,5.7-1,8.7-1.3c2.8-0.3,5.6-0.4,8.4-0.4C290.6,108.4,328.1,145.9,328.1,192.3z"/>
	<path className="st1" d="M251.5,202.9v73c-2.4,0.2-4.8,0.3-7.2,0.3c-0.5,0-1,0-1.4,0c-45.7-0.8-82.5-38-82.5-83.9
		c0-38.7,26.2-71.3,61.8-81v10.9c-29.6,9.4-51.1,37.2-51.1,70c0,40,32,72.6,71.8,73.4v-62.7H251.5z"/>
	<g>
		<g>
			<path className="st0" d="M213.3,229.2c-3.2,0-6.1-0.3-8.9-0.9s-5.4-1.5-7.8-2.7c-2.4-1.2-4.7-2.7-6.8-4.5l5.7-7
				c2.5,2.1,5.2,3.8,8.2,4.8c3,1.1,6.2,1.6,9.7,1.6c4.7,0,8.3-0.9,10.9-2.6c2.6-1.8,3.9-4.2,3.9-7.4v0c0-2.5-0.7-4.4-2-5.7
				c-1.3-1.3-3-2.3-5.2-2.9c-2.1-0.6-4.5-1.2-7-1.6c-2.4-0.4-4.9-0.9-7.4-1.5c-2.5-0.6-4.8-1.5-6.9-2.7s-3.8-2.9-5-5.2
				c-1.3-2.3-1.9-5.3-1.9-9.1v0c0-6.1,2-10.7,6-14.1c4-3.3,9.7-5,17-5c3.5,0,6.9,0.6,10.2,1.7c3.3,1.1,6.6,2.8,9.7,5.1l-5.2,7.2
				c-2.5-1.8-4.9-3.2-7.4-4.1c-2.5-0.9-4.9-1.3-7.4-1.3c-4.4,0-7.9,0.9-10.3,2.7c-2.5,1.8-3.7,4.3-3.7,7.5v0c0,2.4,0.7,4.3,2.1,5.6
				c1.4,1.3,3.3,2.2,5.6,2.8c2.3,0.6,4.8,1.2,7.4,1.7c2.4,0.5,4.8,1.1,7.1,1.7c2.4,0.7,4.5,1.6,6.5,2.9c1.9,1.3,3.5,3,4.7,5.2
				c1.2,2.2,1.8,5.1,1.8,8.6v0.1c0,6-2.1,10.6-6.2,13.9C226.7,227.5,220.8,229.2,213.3,229.2z"/>
		</g>
	</g>
	<g>
		<g>
			<path className="st1" d="M269.8,205.7l18.6-40.2h8.3v60.9h-8.7v-45.6l0.4,2.7l-15.6,34.5h-6.2L251,184.3l0.4-3.5v45.6h-8.7v-60.9h8.3
				L269.8,205.7z"/>
		</g>
	</g>
</g>
</svg>
