<svg width="20" height="15" viewBox="0 0 20 15" fill="none" xmlns="http://www.w3.org/2000/svg">
<path d="M1.36905 1.36364V12.2727C1.36905 12.6344 1.51329 12.9812 1.77003 13.237C2.02678 13.4927 2.375 13.6364 2.7381 13.6364H16.4286C16.7917 13.6364 17.1399 13.4927 17.3966 13.237C17.6534 12.9812 17.7976 12.6344 17.7976 12.2727V1.36364H1.36905ZM1.36905 0H17.7976C18.1607 0 18.5089 0.143668 18.7657 0.3994C19.0224 0.655131 19.1667 1.00198 19.1667 1.36364V12.2727C19.1667 12.996 18.8782 13.6897 18.3647 14.2012C17.8512 14.7127 17.1548 15 16.4286 15H2.7381C2.01191 15 1.31546 14.7127 0.80197 14.2012C0.288477 13.6897 0 12.996 0 12.2727V1.36364C0 1.00198 0.144238 0.655131 0.400985 0.3994C0.657731 0.143668 1.00595 0 1.36905 0Z" fill="#777777"/>
<path d="M17.9167 1.25L12.6554 7.33838C12.2723 7.78178 11.8 8.13712 11.2702 8.38058C10.7403 8.62405 10.1652 8.75 9.58333 8.75C9.00147 8.75 8.42633 8.62405 7.89648 8.38058C7.36664 8.13712 6.89433 7.78178 6.51123 7.33838L1.25 1.25H17.9167ZM3.05816 1.25L7.53435 6.43064C7.78976 6.72631 8.10465 6.96327 8.45793 7.12563C8.8112 7.28798 9.19469 7.37198 9.58265 7.37198C9.97062 7.37198 10.3541 7.28798 10.7074 7.12563C11.0607 6.96327 11.3756 6.72631 11.631 6.43064L16.1085 1.25H3.05816Z" fill="#777777"/>
</svg>
