<svg width="20" height="20" viewBox="0 0 20 20" fill="none" xmlns="http://www.w3.org/2000/svg">
<path fill-rule="evenodd" clip-rule="evenodd" d="M1.81278 0C1.60278 0 1.41556 0.145556 1.34333 0.364444L0.0611112 4.25944C0.0206254 4.38262 -2.95934e-06 4.51145 3.18432e-10 4.64111V6.19056C3.18432e-10 7.06667 0.639445 7.77778 1.42833 7.77778C2.21722 7.77778 2.85722 7.06667 2.85722 6.19056C2.85722 7.06722 3.49667 7.77778 4.28556 7.77778C5.07444 7.77778 5.71444 7.06667 5.71444 6.19056C5.71444 7.06722 6.35389 7.77778 7.14278 7.77778C7.93167 7.77778 8.57056 7.06778 8.57167 6.19167C8.57167 7.06778 9.21111 7.77778 10 7.77778C10.7889 7.77778 11.4283 7.06667 11.4283 6.19056C11.4283 7.06722 12.0683 7.77778 12.8572 7.77778C13.6461 7.77778 14.285 7.06778 14.2856 6.19167C14.2861 7.06778 14.9256 7.77778 15.7144 7.77778C16.5033 7.77778 17.1428 7.06667 17.1428 6.19056C17.1428 7.06722 17.7822 7.77778 18.5717 7.77778C19.3606 7.77778 20 7.06667 20 6.19056V4.64111C20 4.51145 19.9794 4.38262 19.9389 4.25944L18.6567 0.365C18.5844 0.145556 18.3972 0 18.1872 0H1.81278Z" fill="#777777"/>
<path fill-rule="evenodd" clip-rule="evenodd" d="M2.22233 8.46154V12.7782H0.833442C0.759771 12.7782 0.689117 12.8075 0.637023 12.8596C0.58493 12.9117 0.555664 12.9823 0.555664 13.056V13.6115C0.555664 13.6852 0.58493 13.7559 0.637023 13.808C0.689117 13.8601 0.759771 13.8893 0.833442 13.8893H19.1668C19.2404 13.8893 19.3111 13.8601 19.3632 13.808C19.4153 13.7559 19.4446 13.6852 19.4446 13.6115V13.056C19.4446 12.9823 19.4153 12.9117 19.3632 12.8596C19.3111 12.8075 19.2404 12.7782 19.1668 12.7782H17.7779V8.46154C17.5453 8.36887 17.3305 8.23674 17.1429 8.07099C16.9989 8.19801 16.8388 8.3056 16.6668 8.39099V12.7782H3.33344V8.39099C3.16143 8.3056 3.00136 8.19801 2.85733 8.07099C2.67066 8.23488 2.45733 8.36821 2.22233 8.46154ZM16.6668 7.37432C16.714 7.3271 16.7584 7.27655 16.8001 7.22266H16.6668V7.37432ZM17.4857 7.22266C17.5697 7.33148 17.668 7.42846 17.7779 7.51099V7.22266H17.4857ZM2.22233 7.51099C2.33282 7.42911 2.4312 7.33204 2.51455 7.22266H2.22233V7.51099ZM3.20011 7.22266H3.33344V7.37432C3.28572 7.32675 3.24118 7.27608 3.20011 7.22266ZM1.389 15.0004C1.31533 15.0004 1.24467 15.0297 1.19258 15.0818C1.14049 15.1339 1.11122 15.2045 1.11122 15.2782V19.4449C1.11122 19.5922 1.16975 19.7335 1.27394 19.8377C1.37813 19.9419 1.51943 20.0004 1.66678 20.0004H18.3334C18.4808 20.0004 18.6221 19.9419 18.7263 19.8377C18.8305 19.7335 18.889 19.5922 18.889 19.4449V15.2782C18.889 15.2045 18.8597 15.1339 18.8076 15.0818C18.7555 15.0297 18.6849 15.0004 18.6112 15.0004H1.389Z" fill="#777777"/>
<path d="M4.44434 11.3891C4.44434 11.3154 4.4736 11.2448 4.52569 11.1927C4.57779 11.1406 4.64844 11.1113 4.72211 11.1113H6.38878C6.46245 11.1113 6.53311 11.1406 6.5852 11.1927C6.63729 11.2448 6.66656 11.3154 6.66656 11.3891V12.5002C6.66656 12.5739 6.63729 12.6445 6.5852 12.6966C6.53311 12.7487 6.46245 12.778 6.38878 12.778H4.72211C4.64844 12.778 4.57779 12.7487 4.52569 12.6966C4.4736 12.6445 4.44434 12.5739 4.44434 12.5002V11.3891Z" fill="#777777"/>
<path d="M5.55566 11.9447C5.55566 11.871 5.58493 11.8003 5.63702 11.7482C5.68912 11.6961 5.75977 11.6669 5.83344 11.6669H7.50011C7.57378 11.6669 7.64443 11.6961 7.69653 11.7482C7.74862 11.8003 7.77789 11.871 7.77789 11.9447V12.5002C7.77789 12.5739 7.74862 12.6445 7.69653 12.6966C7.64443 12.7487 7.57378 12.778 7.50011 12.778H5.83344C5.75977 12.778 5.68912 12.7487 5.63702 12.6966C5.58493 12.6445 5.55566 12.5739 5.55566 12.5002V11.9447ZM10.0001 11.9447C10.0001 12.1657 9.91231 12.3776 9.75603 12.5339C9.59975 12.6902 9.38779 12.778 9.16678 12.778C8.94576 12.778 8.7338 12.6902 8.57752 12.5339C8.42124 12.3776 8.33344 12.1657 8.33344 11.9447C8.33344 11.7236 8.42124 11.5117 8.57752 11.3554C8.7338 11.1991 8.94576 11.1113 9.16678 11.1113C9.38779 11.1113 9.59975 11.1991 9.75603 11.3554C9.91231 11.5117 10.0001 11.7236 10.0001 11.9447Z" fill="#777777"/>
</svg>
