<svg width="15" height="3" viewBox="0 0 15 3" fill="none" xmlns="http://www.w3.org/2000/svg">
<path d="M1.5 -5.90104e-07C1.89782 -5.72714e-07 2.27936 0.158035 2.56066 0.439339C2.84196 0.720644 3 1.10217 3 1.5C3 1.89782 2.84196 2.27936 2.56066 2.56066C2.27935 2.84196 1.89782 3 1.5 3C1.10217 3 0.720643 2.84196 0.439338 2.56066C0.158033 2.27936 -1.03663e-06 1.89782 -1.01924e-06 1.5C-1.00185e-06 1.10217 0.158033 0.720644 0.439338 0.439339C0.720643 0.158035 1.10217 -6.07493e-07 1.5 -5.90104e-07ZM7.5 -3.27835e-07C7.89782 -3.10446e-07 8.27936 0.158035 8.56066 0.43934C8.84196 0.720644 9 1.10218 9 1.5C9 1.89782 8.84196 2.27936 8.56066 2.56066C8.27936 2.84196 7.89782 3 7.5 3C7.10217 3 6.72064 2.84196 6.43934 2.56066C6.15804 2.27936 6 1.89782 6 1.5C6 1.10217 6.15804 0.720644 6.43934 0.439339C6.72064 0.158035 7.10217 -3.45225e-07 7.5 -3.27835e-07ZM13.5 -6.55671e-08C13.8978 -4.81776e-08 14.2794 0.158035 14.5607 0.43934C14.842 0.720644 15 1.10218 15 1.5C15 1.89782 14.842 2.27936 14.5607 2.56066C14.2794 2.84196 13.8978 3 13.5 3C13.1022 3 12.7206 2.84196 12.4393 2.56066C12.158 2.27936 12 1.89782 12 1.5C12 1.10218 12.158 0.720644 12.4393 0.43934C12.7206 0.158035 13.1022 -8.29566e-08 13.5 -6.55671e-08Z" fill="black"/>
</svg>
