<svg width="30" height="30" viewBox="0 0 30 30" fill="none" xmlns="http://www.w3.org/2000/svg">
<path d="M19.858 13.435H12.9393C12.9223 14.1237 12.882 14.8116 12.8184 15.4975H19.8585L19.858 13.435ZM12.9393 9.46094H19.8585V11.5244H12.9393V9.46094Z" fill="#1569BD"/>
<path d="M24.375 0.9375H5.625C3.03609 0.9375 0.9375 2.80292 0.9375 5.10417V21.7708C0.9375 24.0721 3.03609 25.9375 5.625 25.9375H24.375C26.9639 25.9375 29.0625 24.0721 29.0625 21.7708V5.10417C29.0625 2.80292 26.9639 0.9375 24.375 0.9375ZM22.0312 17.8192C22.0312 18.9017 21.7383 19.4125 20.9447 19.7137C20.1159 20.0296 18.9084 20.0587 17.1314 20.0587C17.0105 19.5329 16.5961 18.6763 16.2684 18.1796C17.4759 18.24 18.9258 18.225 19.3055 18.225C19.7194 18.225 19.8581 18.1046 19.8581 17.7887V15.6096H12.472C12.0239 17.2925 11.1609 18.9317 9.55594 20.1042C9.24562 19.7283 8.41734 19.0667 7.96828 18.8108C10.5741 16.8717 10.8155 14.0004 10.8155 11.7162V6.77083H22.0312V17.8192Z" fill="#1569BD"/>
</svg>
