<svg width="26" height="27" viewBox="0 0 26 27" fill="none" xmlns="http://www.w3.org/2000/svg">
<g id="Group">
<path id="Vector" fill-rule="evenodd" clip-rule="evenodd" d="M12.5806 26C14.4976 26 17.7754 23.5 17.7754 13.5C17.7754 3.5 14.4976 1 12.5806 1C10.6636 1 7.38574 3.66846 7.38574 13.5C7.38574 23.3315 10.6636 26 12.5806 26Z" stroke="#1569BD" strokeWidth="2" strokeLinecap="round" strokeLinejoin="round"/>
<path id="Vector_2" fill-rule="evenodd" clip-rule="evenodd" d="M1.33243 20.0482C2.29094 21.7222 6.1793 23.275 15.177 18.0369C24.1746 12.7988 24.7851 8.62696 23.8266 6.95297C22.8681 5.27898 18.8282 3.81438 9.98216 8.96428C1.13603 14.1141 0.373937 18.3742 1.33243 20.0482Z" stroke="#1569BD" strokeWidth="2" strokeLinecap="round" strokeLinejoin="round"/>
<path id="Vector_3" fill-rule="evenodd" clip-rule="evenodd" d="M1.33313 6.95297C0.374638 8.62696 0.98515 12.7988 9.98285 18.0369C18.9805 23.275 22.8688 21.7222 23.8273 20.0482C24.7858 18.3742 24.0237 14.1141 15.1776 8.96428C6.33154 3.81438 2.29164 5.27898 1.33313 6.95297Z" stroke="#1569BD" strokeWidth="2" strokeLinecap="round" strokeLinejoin="round"/>
</g>
</svg>
