<svg width="32" height="30" viewBox="0 0 32 30" fill="none" xmlns="http://www.w3.org/2000/svg">
<path d="M27.983 9.3636V2.49994C27.9842 2.17177 27.9128 1.84664 27.7729 1.5432C27.633 1.23975 27.4275 0.963978 27.168 0.731698C26.9085 0.499419 26.6002 0.315209 26.2608 0.189645C25.9215 0.0640801 25.5577 -0.000367439 25.1903 1.57575e-06H17.5118C17.0084 0.000927029 16.5256 0.179179 16.1683 0.496082L0.817535 14.2061C0.293986 14.6753 0 15.3108 0 15.9734C0 16.6359 0.293986 17.2714 0.817535 17.7406L8.12562 24.2695C8.65067 24.7373 9.36195 25 10.1035 25C10.845 25 11.5563 24.7373 12.0814 24.2695L27.4277 10.5639C27.7826 10.2448 27.9821 9.81342 27.983 9.3636ZM21.9866 7.14267C21.5913 7.14267 21.2049 7.03794 20.8762 6.84173C20.5475 6.64552 20.2913 6.36664 20.14 6.04035C19.9887 5.71406 19.9491 5.35502 20.0262 5.00864C20.1034 4.66225 20.2937 4.34408 20.5733 4.09435C20.8528 3.84462 21.209 3.67455 21.5967 3.60565C21.9844 3.53675 22.3863 3.57211 22.7515 3.70726C23.1168 3.84242 23.4289 4.07129 23.6486 4.36494C23.8682 4.65859 23.9854 5.00383 23.9854 5.357C23.9854 5.83059 23.7748 6.28478 23.4 6.61966C23.0252 6.95454 22.5168 7.14267 21.9866 7.14267Z" fill="#1569BD"/>
<path d="M30.9811 2.99805C30.716 2.99805 30.4618 3.10334 30.2744 3.29076C30.087 3.47819 29.9817 3.73239 29.9817 3.99744V11.9533L13.6597 28.2759C13.563 28.3678 13.4856 28.4781 13.4322 28.6003C13.3788 28.7226 13.3504 28.8543 13.3487 28.9877C13.347 29.1211 13.372 29.2534 13.4223 29.377C13.4725 29.5006 13.547 29.6128 13.6413 29.7071C13.7357 29.8015 13.8479 29.876 13.9715 29.9262C14.0951 29.9765 14.2274 30.0015 14.3608 29.9998C14.4942 29.9981 14.6259 29.9697 14.7481 29.9163C14.8704 29.8629 14.9807 29.7855 15.0726 29.6888L31.4377 13.3237C31.6118 13.1488 31.7494 12.9411 31.8426 12.7126C31.9358 12.4841 31.9826 12.2394 31.9805 11.9926V3.99744C31.9805 3.73239 31.8752 3.47819 31.6878 3.29076C31.5004 3.10334 31.2462 2.99805 30.9811 2.99805Z" fill="#1569BD"/>
</svg>
