<svg width="19" height="26" viewBox="0 0 19 26" fill="none" xmlns="http://www.w3.org/2000/svg">
<path id="Vector" d="M16.2791 11.5465H2.32558C1.7088 11.5465 1.11728 11.7915 0.681147 12.2277C0.245016 12.6638 0 13.2553 0 13.8721V23.1744C0 23.7912 0.245016 24.3827 0.681147 24.8189C1.11728 25.255 1.7088 25.5 2.32558 25.5H16.2791C16.8959 25.5 17.4874 25.255 17.9235 24.8189C18.3596 24.3827 18.6047 23.7912 18.6047 23.1744V13.8721C18.6047 13.2553 18.3596 12.6638 17.9235 12.2277C17.4874 11.7915 16.8959 11.5465 16.2791 11.5465ZM16.2791 18.5233H2.32558V15.0349H16.2791M15.1163 4.56977V10.3837H13.3721V6.31395H6.83721L9.65116 9.13953L8.4186 10.3837L3.48837 5.44186L8.4186 0.5L9.65116 1.74419L6.83721 4.56977H15.1163Z" fill="#1569BD"/>
</svg>
