<svg width="23" height="24" viewBox="0 0 23 24" fill="none" xmlns="http://www.w3.org/2000/svg">
<path d="M7.94826 0.857143C7.94826 0.629814 8.03835 0.411797 8.1987 0.251051C8.35905 0.0903058 8.57653 0 8.8033 0C9.03007 0 9.24756 0.0903058 9.40791 0.251051C9.56826 0.411797 9.65834 0.629814 9.65834 0.857143V21.9309C9.65831 22.1003 9.6082 22.2658 9.51435 22.4067C9.4205 22.5476 9.28712 22.6574 9.13105 22.7224C8.97497 22.7873 8.8032 22.8044 8.63743 22.7715C8.47166 22.7387 8.31932 22.6573 8.19965 22.5377L0.2512 14.5714C0.171573 14.4918 0.108398 14.3972 0.065293 14.2931C0.022188 14.189 0 14.0773 0 13.9646C0 13.8518 0.022188 13.7402 0.065293 13.6361C0.108398 13.5319 0.171573 13.4373 0.2512 13.3577H0.25462C0.414894 13.1975 0.631971 13.1076 0.858278 13.1076C1.08458 13.1076 1.30166 13.1975 1.46194 13.3577L7.94826 19.8651V0.857143ZM13.0785 2.06914C13.0789 1.89989 13.1292 1.73454 13.2232 1.59393C13.3172 1.45332 13.4506 1.34375 13.6066 1.27903C13.7626 1.21431 13.9342 1.19734 14.0998 1.23026C14.2654 1.26318 14.4176 1.34451 14.5372 1.464L22.4856 9.42857C22.5653 9.50819 22.6284 9.60278 22.6715 9.70691C22.7147 9.81105 22.7368 9.92268 22.7368 10.0354C22.7368 10.1482 22.7147 10.2598 22.6715 10.3639C22.6284 10.4681 22.5653 10.5627 22.4856 10.6423H22.4822C22.3219 10.8025 22.1049 10.8924 21.8786 10.8924C21.6523 10.8924 21.4352 10.8025 21.2749 10.6423L14.7886 4.13829V23.1429C14.7886 23.3702 14.6985 23.5882 14.5381 23.7489C14.3778 23.9097 14.1603 24 13.9335 24C13.7068 24 13.4893 23.9097 13.3289 23.7489C13.1686 23.5882 13.0785 23.3702 13.0785 23.1429V2.06914Z" fill="#1569BD"/>
</svg>
