
<svg width="16" height="16" viewBox="0 0 16 16" fill="none" xmlns="http://www.w3.org/2000/svg">
<path d="M12.3337 13.9998C13.2541 13.9998 14.0003 13.2536 14.0003 12.3332C14.0003 11.4127 13.2541 10.6665 12.3337 10.6665C11.4132 10.6665 10.667 11.4127 10.667 12.3332C10.667 13.2536 11.4132 13.9998 12.3337 13.9998Z" stroke="#1D70F1" stroke-width="1.2" stroke-linecap="round" stroke-linejoin="round"/>
<path d="M3.66667 13.9998C4.58714 13.9998 5.33333 13.2536 5.33333 12.3332C5.33333 11.4127 4.58714 10.6665 3.66667 10.6665C2.74619 10.6665 2 11.4127 2 12.3332C2 13.2536 2.74619 13.9998 3.66667 13.9998Z" stroke="#1D70F1" stroke-width="1.2" stroke-linecap="round" stroke-linejoin="round"/>
<path d="M10.667 5.3335H13.3337L15.3337 7.3335V10.6668H10.667V5.3335Z" stroke="#1D70F1" stroke-width="1.2" stroke-linecap="round" stroke-linejoin="round"/>
<path d="M10.667 2H0.666992V10.6667H10.667V2Z" stroke="#1D70F1" stroke-width="1.2" stroke-linecap="round" stroke-linejoin="round"/>
</svg>
