<svg width="25" height="25" viewBox="0 0 25 25" fill="none" xmlns="http://www.w3.org/2000/svg">
<path id="Vector" d="M22.2222 0H2.77778C1.25 0 0 1.25 0 2.77778V22.2222C0 23.75 1.25 25 2.77778 25H22.2222C23.75 25 25 23.75 25 22.2222V2.77778C25 1.25 23.75 0 22.2222 0ZM12.5 4.16667C15.1806 4.16667 17.3611 6.34722 17.3611 9.02778C17.3611 11.7083 15.1806 13.8889 12.5 13.8889C9.81944 13.8889 7.63889 11.7083 7.63889 9.02778C7.63889 6.34722 9.81944 4.16667 12.5 4.16667ZM22.2222 22.2222H2.77778V21.9028C2.77778 21.0417 3.16667 20.2361 3.83333 19.7083C6.20833 17.8056 9.22222 16.6667 12.5 16.6667C15.7778 16.6667 18.7917 17.8056 21.1667 19.7083C21.8333 20.2361 22.2222 21.0556 22.2222 21.9028V22.2222Z" fill="#1569BD"/>
</svg>
